<?xml version="1.0" encoding="UTF-8"?>
<svg version="1.1" xmlns="http://www.w3.org/2000/svg" width="512" height="512">
<path d="M0 0 C1.13089554 0.37071121 2.26179108 0.74142242 3.42695618 1.12336731 C4.62306015 1.52955795 5.81916412 1.9357486 7.05151367 2.35424805 C8.29825363 2.76885788 9.54499359 3.18346771 10.82951355 3.61064148 C13.45520309 4.48495286 16.07792842 5.36749625 18.69873047 6.25634766 C22.05423525 7.39384152 25.41568715 8.51240668 28.77945423 9.6251955 C31.99823707 10.69237123 35.21217523 11.77375752 38.42651367 12.85424805 C39.6327388 13.254366 40.83896393 13.65448395 42.08174133 14.06672668 C43.19687607 14.44689438 44.3120108 14.82706207 45.4609375 15.21875 C46.4427449 15.54962112 47.42455231 15.88049225 48.43611145 16.22138977 C50.9118371 17.30559282 52.23472454 18.20604539 53.90698242 20.3034668 C54.94922515 23.35002247 55.03155672 24.89141333 54.09448242 27.9909668 C52.90698242 30.3034668 52.90698242 30.3034668 50.90698242 32.3034668 C43.25883487 33.01787527 37.38375147 31.10498303 30.25854492 28.47924805 C28.0140775 27.689914 25.76927522 26.90153157 23.52416992 26.11401367 C20.02220762 24.86818935 16.52423216 23.61314208 13.03198242 22.34033203 C9.63727089 21.10960574 6.23085782 19.91737839 2.82104492 18.72924805 C1.27521225 18.14824089 1.27521225 18.14824089 -0.30184937 17.55549622 C-1.78861679 17.04462715 -1.78861679 17.04462715 -3.30541992 16.5234375 C-4.15985687 16.21477249 -5.01429382 15.90610748 -5.8946228 15.58808899 C-10.95582397 15.13769738 -15.29990865 16.77126904 -20.09301758 18.3034668 C-21.13023705 18.63360118 -22.16745651 18.96373556 -23.23610687 19.30387402 C-26.73250763 20.43917781 -30.21814591 21.6035655 -33.70263672 22.77490234 C-35.03095657 23.21895822 -36.35936915 23.66273679 -37.68786621 24.10626221 C-40.52461547 25.05393614 -43.36073498 26.00346264 -46.19636726 26.9544735 C-50.67874199 28.45767526 -55.16267232 29.95619849 -59.64683533 31.45405579 C-69.15092592 34.62945277 -78.65330236 37.80996309 -88.15551758 40.9909668 C-98.44708558 44.43618278 -108.7389506 47.88049643 -119.03276533 51.31899482 C-123.49305009 52.80908121 -127.95234307 54.30208868 -132.4109031 55.7973274 C-135.17459033 56.72351437 -137.93909596 57.64723862 -140.70383453 58.57028198 C-142.60293504 59.20516625 -144.50102744 59.8430635 -146.39909363 60.48103333 C-147.52185699 60.85533478 -148.64462036 61.22963623 -149.80140686 61.61528015 C-151.27051561 62.10720368 -151.27051561 62.10720368 -152.76930332 62.60906506 C-155.09301758 63.3034668 -155.09301758 63.3034668 -157.09301758 63.3034668 C-157.03217592 84.40238294 -156.95446344 105.50117899 -156.85730267 126.59996033 C-156.81256003 136.39906734 -156.77309736 146.19813976 -156.74658203 155.99731445 C-156.72342582 164.54991151 -156.689836 173.10239704 -156.64431602 181.65490532 C-156.62061828 186.17282572 -156.60173759 190.69063729 -156.59540367 195.20861816 C-156.55810832 218.75575598 -156.23119048 242.0861491 -150.34301758 265.0534668 C-150.08625244 266.08238037 -149.8294873 267.11129395 -149.56494141 268.17138672 C-137.15233361 316.48162957 -109.52993136 361.42108138 -70.09301758 392.3034668 C-69.09657227 393.10526367 -68.10012695 393.90706055 -67.07348633 394.7331543 C-55.24719992 404.16207084 -42.51929995 411.69266655 -29.15551758 418.7409668 C-27.71716553 419.50352783 -27.71716553 419.50352783 -26.24975586 420.28149414 C-23.55447974 421.67809037 -20.8337915 422.99893899 -18.09301758 424.3034668 C-16.98458496 424.90130981 -16.98458496 424.90130981 -15.85375977 425.51123047 C-12.23896664 427.17355859 -10.05794555 427.56727338 -6.16845703 426.50390625 C-2.74585773 425.07880468 0.50095281 423.46709085 3.78198242 421.7409668 C4.98208332 421.13239636 6.18285688 420.5251507 7.38427734 419.91918945 C23.02109313 411.93712072 37.44490325 402.56018076 50.90698242 391.3034668 C51.49850098 390.81346191 52.09001953 390.32345703 52.69946289 389.81860352 C64.24267238 380.22957155 74.61024233 370.12840815 83.90698242 358.3034668 C84.68686523 357.34053711 85.46674805 356.37760742 86.27026367 355.38549805 C97.31446939 341.48776549 106.45969241 326.40395373 113.90698242 310.3034668 C114.20411133 309.6744043 114.50124023 309.0453418 114.80737305 308.3972168 C132.50734052 270.76068466 136.35474097 231.88465619 136.41309333 190.85417628 C136.42262536 186.35256723 136.44883748 181.85105198 136.47309875 177.34950256 C136.51636719 168.86823007 136.54515536 160.38697618 136.56842214 151.90562779 C136.59568959 142.23165808 136.63958546 132.55778461 136.68471086 122.88388431 C136.77698745 103.0237973 136.8489256 83.16368146 136.90698242 63.3034668 C136.18080153 63.10822387 135.45462063 62.91298094 134.70643425 62.71182156 C129.79248244 61.38273183 124.89567498 60.04803553 120.0559082 58.46582031 C118.54977463 57.97499718 118.54977463 57.97499718 117.01321411 57.47425842 C115.97011078 57.13043625 114.92700745 56.78661407 113.85229492 56.43237305 C112.19543167 55.88697121 112.19543167 55.88697121 110.50509644 55.33055115 C108.1902518 54.56663952 105.87597767 53.80099711 103.56225586 53.03369141 C100.02400637 51.86332852 96.48121944 50.70744258 92.93823242 49.55151367 C90.68012495 48.80435768 88.42230208 48.05634089 86.16479492 47.30737305 C85.1095462 46.9655751 84.05429749 46.62377716 82.96707153 46.2716217 C73.68078138 43.15757003 73.68078138 43.15757003 69.90698242 39.3034668 C69.04140871 36.55083488 69.29776707 34.10815635 69.90698242 31.3034668 C71.46948242 28.8034668 71.46948242 28.8034668 73.90698242 27.3034668 C79.06537783 26.94710994 83.10189864 27.73833635 87.98803711 29.35131836 C88.65723679 29.56922531 89.32643646 29.78713226 90.01591492 30.01164246 C92.20722369 30.72850914 94.39307428 31.46056499 96.57885742 32.1940918 C98.1084888 32.70070102 99.63829725 33.20677586 101.16827393 33.71234131 C104.36464236 34.77136714 107.55827003 35.83820581 110.75024414 36.91040039 C114.83939901 38.28303446 118.93541771 39.63374186 123.03382492 40.9784584 C126.19057393 42.0172747 129.34302766 43.06865564 132.49436188 44.12377167 C134.00325705 44.62706101 135.51354769 45.12618667 137.02523041 45.62104034 C139.135897 46.31382765 141.24008546 47.02360001 143.34350586 47.73803711 C144.54150818 48.13774719 145.7395105 48.53745728 146.97381592 48.94927979 C150.23625984 50.4554879 151.41453611 51.04666876 152.90698242 54.3034668 C153.31796272 57.42751148 153.28558128 60.51508831 153.24755859 63.66186523 C153.24799667 64.60854568 153.24843475 65.55522614 153.24888611 66.53059387 C153.24679688 69.65821998 153.22345915 72.78530938 153.19995117 75.9128418 C153.19435571 78.08188586 153.19008537 80.25093371 153.18708801 82.41998291 C153.17563541 88.1279752 153.14616445 93.83573836 153.11297607 99.54364014 C153.08228427 105.36849874 153.06858457 111.19339438 153.0534668 117.01831055 C153.02129528 128.44681281 152.96852375 139.8750849 152.90698242 151.3034668 C164.45698242 151.3034668 176.00698242 151.3034668 187.90698242 151.3034668 C188.56698242 149.6534668 189.22698242 148.0034668 189.90698242 146.3034668 C190.9071367 144.80415021 191.95840732 143.33799032 193.05151367 141.9050293 C193.94193359 140.69073242 193.94193359 140.69073242 194.8503418 139.4519043 C196.09967706 137.76523642 197.36550585 136.09066539 198.6472168 134.4284668 C200.34081174 132.08606325 201.79474282 129.97295712 202.90698242 127.3034668 C202.02397126 123.44349827 202.02397126 123.44349827 199.90698242 120.3034668 C198.17108814 113.33658907 198.71925934 106.53408112 202.02807617 100.13549805 C205.76195476 94.49765871 210.4546287 91.26998472 216.90698242 89.3034668 C224.37051505 88.21663795 230.69946193 88.87572491 236.90698242 93.3034668 C242.04349688 97.6228085 245.46838149 101.89212625 246.32885742 108.5847168 C246.67433692 117.56718388 245.3339531 122.5030048 239.33276367 129.01049805 C234.23099037 133.89821093 228.46643342 136.04459763 221.46948242 136.5534668 C218.90698242 136.3034668 218.90698242 136.3034668 216.90698242 135.3034668 C216.65553467 136.00705322 216.40408691 136.71063965 216.14501953 137.43554688 C214.76310115 140.63676857 213.05289485 143.30283115 211.09838867 146.19018555 C210.73100082 146.73326859 210.36361298 147.27635162 209.98509216 147.83589172 C209.21167926 148.97619641 208.43584388 150.11486144 207.65771484 151.25195312 C206.46933497 152.9911826 205.29227369 154.73769679 204.1159668 156.48510742 C203.36077686 157.59558902 202.60493955 158.70563069 201.84838867 159.81518555 C201.16462158 160.82025146 200.48085449 161.82531738 199.77636719 162.86083984 C197.90698242 165.3034668 197.90698242 165.3034668 194.90698242 167.3034668 C192.95173645 167.54397583 192.95173645 167.54397583 190.7109375 167.53051758 C189.85858521 167.53027588 189.00623291 167.53003418 188.12805176 167.52978516 C187.23654419 167.51955322 186.34503662 167.50932129 185.42651367 167.4987793 C184.60389038 167.49676514 183.78126709 167.49475098 182.93371582 167.49267578 C179.86224793 167.48221563 176.79085955 167.45429301 173.71948242 167.4284668 C166.85135742 167.3872168 159.98323242 167.3459668 152.90698242 167.3034668 C152.90698242 182.4834668 152.90698242 197.6634668 152.90698242 213.3034668 C168.74698242 213.3034668 184.58698242 213.3034668 200.90698242 213.3034668 C201.56698242 211.3234668 202.22698242 209.3434668 202.90698242 207.3034668 C207.70885138 201.7332988 212.78339494 197.84927852 220.18041992 197.0612793 C226.4946063 196.73099878 231.6049117 197.77857163 236.90698242 201.3034668 C242.03728791 205.99319261 245.47906133 210.53325673 246.27807617 217.57299805 C246.42100804 225.1988338 246.20970744 230.57439203 240.90698242 236.3034668 C235.56932007 241.83973984 230.80939043 244.31911916 223.03198242 244.6159668 C216.7110445 244.46388408 212.01750962 243.0782283 207.15698242 238.9909668 C204.90698242 236.3034668 204.90698242 236.3034668 203.46069336 233.18579102 C200.57104681 229.92430276 200.08085163 229.84869956 195.95483398 229.53051758 C193.90280628 229.4895748 191.84996674 229.48102383 189.79760742 229.4987793 C188.71566101 229.48507294 187.6337146 229.47136658 186.51898193 229.45724487 C183.06456217 229.41986559 179.61157615 229.42366542 176.15698242 229.4284668 C173.81451195 229.41034574 171.47206057 229.38954493 169.12963867 229.3659668 C163.38861242 229.31404162 157.64822185 229.29591681 151.90698242 229.3034668 C151.92037407 230.28084557 151.92037407 230.28084557 151.93403625 231.27796936 C151.97198003 236.05087793 151.89596719 240.63687205 151.13745117 245.36206055 C150.88705078 246.93117188 150.88705078 246.93117188 150.6315918 248.53198242 C150.4543457 249.59094727 150.27709961 250.64991211 150.09448242 251.7409668 C149.92883789 252.79606445 149.76319336 253.85116211 149.5925293 254.93823242 C148.46115787 261.87588741 146.80819069 268.53976406 144.90698242 275.3034668 C145.51197571 275.29902557 146.11696899 275.29458435 146.74029541 275.29000854 C153.03427774 275.24577833 159.32821596 275.21560162 165.62231445 275.19360352 C167.97161655 275.18354296 170.32090612 275.16989307 172.67016602 275.15258789 C176.04601127 275.12834228 179.42169102 275.11698421 182.79760742 275.1081543 C183.84877747 275.09783173 184.89994751 275.08750916 185.98297119 275.07687378 C186.96368591 275.07672272 187.94440063 275.07657166 188.95483398 275.07641602 C189.81643127 275.07197479 190.67802856 275.06753357 191.56573486 275.06295776 C194.1591035 275.32936641 195.71177194 275.91196225 197.90698242 277.3034668 C199.5417148 279.36013587 201.00790706 281.37196873 202.45385742 283.5534668 C202.86992249 284.16738281 203.28598755 284.78129883 203.71466064 285.41381836 C204.58955192 286.70877102 205.46005188 288.00670002 206.32641602 289.30737305 C207.65661303 291.30291265 209.00124446 293.28808897 210.34838867 295.2722168 C211.19691104 296.53205055 212.04459674 297.7924483 212.89135742 299.0534668 C213.29441101 299.64933594 213.6974646 300.24520508 214.11273193 300.85913086 C216.90698242 305.07141178 216.90698242 305.07141178 216.90698242 307.3034668 C217.66881836 307.24545898 218.4306543 307.18745117 219.21557617 307.12768555 C226.76648664 306.79774564 231.9049941 307.56130177 237.90698242 312.3034668 C242.52932419 316.66735505 245.53167131 320.89511822 246.24291992 327.35424805 C246.33848139 335.33363023 245.86472522 341.11126056 240.25854492 347.04956055 C233.75229264 352.9733754 228.04891741 353.76647661 219.35620117 353.61206055 C212.99144943 353.0426207 208.99873821 350.711314 204.59448242 346.1784668 C200.37958498 340.7889258 198.47934518 334.49824551 199.03198242 327.6784668 C199.32929693 325.39905558 199.70941724 323.63596532 200.88964844 321.6496582 C202.09848012 319.40751203 202.70885907 317.85723414 202.90698242 315.3034668 C201.07040254 311.07856139 198.37392704 307.58117469 195.59448242 303.9284668 C194.15777952 301.96459174 192.7240223 299.99855716 191.29370117 298.0300293 C190.32243286 296.73959717 190.32243286 296.73959717 189.33154297 295.4230957 C187.90698242 293.3034668 187.90698242 293.3034668 187.90698242 291.3034668 C172.06698242 291.3034668 156.22698242 291.3034668 139.90698242 291.3034668 C138.42198242 296.2534668 138.42198242 296.2534668 136.90698242 301.3034668 C135.79064125 304.11801566 134.65431497 306.86326597 133.40698242 309.6159668 C133.06368896 310.37594971 132.72039551 311.13593262 132.36669922 311.91894531 C119.14969733 340.74036684 101.76383923 365.41043308 79.90698242 388.3034668 C78.95758789 389.31473633 78.95758789 389.31473633 77.98901367 390.34643555 C73.89074172 394.6004613 69.38454888 398.29124971 64.78198242 401.98706055 C62.93098582 403.47842058 61.09607393 404.99008426 59.28198242 406.52612305 C42.71572746 420.50390067 10.76355008 445.08778627 -11.85766602 444.59350586 C-16.19248919 444.03105829 -20.01311638 442.2157283 -23.96801758 440.4284668 C-24.88276855 440.02426514 -25.79751953 439.62006348 -26.73999023 439.20361328 C-61.68508177 423.46048371 -94.5805572 398.6803032 -118.09301758 368.3034668 C-119.09747833 367.05026307 -120.10274371 365.797704 -121.10864258 364.5456543 C-135.52544127 346.3927686 -146.4646862 326.38814737 -155.53051758 305.1159668 C-155.87308594 304.31344482 -156.2156543 303.51092285 -156.56860352 302.68408203 C-157.04281738 301.54628296 -157.04281738 301.54628296 -157.52661133 300.38549805 C-157.80561279 299.71752197 -158.08461426 299.0495459 -158.37207031 298.36132812 C-159.09301758 296.3034668 -159.09301758 296.3034668 -160.09301758 291.3034668 C-175.93301758 291.3034668 -191.77301758 291.3034668 -208.09301758 291.3034668 C-208.75301758 292.9534668 -209.41301758 294.6034668 -210.09301758 296.3034668 C-211.10267598 297.73605878 -212.16587537 299.13204889 -213.27270508 300.4909668 C-220.39938396 308.8688315 -220.39938396 308.8688315 -222.98754883 319.01831055 C-221.82686097 322.25220394 -221.82686097 322.25220394 -220.33129883 325.3112793 C-218.18838492 330.48942457 -219.27681114 335.14278264 -221.09301758 340.3034668 C-224.49086494 346.67182489 -229.21011898 351.00916726 -236.09301758 353.3034668 C-244.00102809 353.91641297 -251.62419775 354.44843512 -258.09301758 349.3034668 C-262.79749672 344.85214348 -265.75298829 340.61282164 -266.42895508 334.03393555 C-266.57642245 320.65864484 -266.57642245 320.65864484 -262.09301758 315.3034668 C-257.27103846 310.89649408 -252.19597075 307.30565882 -245.59301758 306.6159668 C-244.46379883 306.48641602 -244.46379883 306.48641602 -243.31176758 306.35424805 C-241.04124336 306.30228182 -239.25796522 306.64906217 -237.09301758 307.3034668 C-236.83182129 306.58489502 -236.570625 305.86632324 -236.30151367 305.12597656 C-235.04533375 302.19209856 -233.55215589 299.77929419 -231.75708008 297.14331055 C-231.10481445 296.18489258 -230.45254883 295.22647461 -229.78051758 294.23901367 C-229.09989258 293.2496582 -228.41926758 292.26030273 -227.71801758 291.2409668 C-226.70868164 289.75113281 -226.70868164 289.75113281 -225.67895508 288.23120117 C-218.25938305 277.38664953 -218.25938305 277.38664953 -214.09301758 275.3034668 C-212.5201055 275.21342714 -210.94340182 275.18590171 -209.36791992 275.18994141 C-208.38705414 275.19001694 -207.40618835 275.19009247 -206.39559937 275.19017029 C-205.33410675 275.19533157 -204.27261414 275.20049286 -203.17895508 275.20581055 C-201.55179062 275.20793297 -201.55179062 275.20793297 -199.89175415 275.21009827 C-196.41714758 275.21570877 -192.94260477 275.22826308 -189.46801758 275.2409668 C-187.11645601 275.24598044 -184.76489343 275.25054358 -182.41333008 275.25463867 C-176.63987072 275.26568162 -170.8664487 275.28243 -165.09301758 275.3034668 C-165.36146484 274.26230713 -165.62991211 273.22114746 -165.90649414 272.1484375 C-167.82672151 264.6335174 -169.67894146 257.16702165 -170.84301758 249.4909668 C-170.96805664 248.74911133 -171.0930957 248.00725586 -171.22192383 247.24291992 C-171.89076483 242.96895242 -172.15202764 238.84029799 -172.12524414 234.51171875 C-172.12059143 233.53290237 -172.11593872 232.554086 -172.11114502 231.54560852 C-172.10516296 230.80570175 -172.09918091 230.06579498 -172.09301758 229.3034668 C-178.98045596 229.24362956 -185.86587417 229.24592477 -192.75341797 229.29125977 C-195.09586002 229.29936678 -197.43839609 229.29329084 -199.78076172 229.27270508 C-203.15042313 229.24555919 -206.51645424 229.2695496 -209.88598633 229.3034668 C-211.45499947 229.27434204 -211.45499947 229.27434204 -213.05570984 229.24462891 C-218.48992304 229.22627836 -218.48992304 229.22627836 -222.82362366 232.08644104 C-224.18968977 234.20659736 -224.18968977 234.20659736 -225.18841553 236.40895081 C-226.36581703 238.87479307 -227.79448546 239.92198066 -230.15551758 241.2409668 C-231.13198242 241.81137695 -231.13198242 241.81137695 -232.12817383 242.39331055 C-238.31857323 245.26083154 -245.82217945 245.29303135 -252.28051758 243.2409668 C-258.97490374 240.36807233 -263.36277031 234.92491691 -266.09301758 228.3034668 C-266.94623573 221.77634792 -267.46020904 214.5929486 -264.03051758 208.7409668 C-259.84576306 203.31497153 -254.96955051 198.65180659 -248.09301758 197.3034668 C-241.0186805 196.52819698 -235.09371497 197.31039644 -229.09301758 201.3034668 C-225.05911879 204.99679251 -222.43267645 207.94483129 -221.09301758 213.3034668 C-205.25301758 213.3034668 -189.41301758 213.3034668 -173.09301758 213.3034668 C-173.09301758 198.1234668 -173.09301758 182.9434668 -173.09301758 167.3034668 C-186.69056469 167.50107541 -186.69056469 167.50107541 -200.28710938 167.75390625 C-201.99713581 167.76851511 -203.70717968 167.78125484 -205.41723633 167.79174805 C-206.29851196 167.81732788 -207.1797876 167.84290771 -208.08776855 167.8692627 C-212.39593906 167.8723177 -214.42432519 167.81233941 -217.93481445 165.14086914 C-220.12154025 162.26596787 -222.26805548 159.40376634 -224.30004883 156.41674805 C-224.85543587 155.60212349 -224.85543587 155.60212349 -225.42204285 154.77104187 C-226.19515831 153.63416151 -226.96558564 152.49544878 -227.73339844 151.35498047 C-228.91271128 149.60529386 -230.10280353 147.8633082 -231.29418945 146.12182617 C-232.04679076 145.0122395 -232.79876689 143.90222847 -233.55004883 142.79174805 C-234.23043213 141.78668213 -234.91081543 140.78161621 -235.61181641 139.74609375 C-237.09301758 137.3034668 -237.09301758 137.3034668 -237.09301758 135.3034668 C-237.75301758 135.6334668 -238.41301758 135.9634668 -239.09301758 136.3034668 C-245.86044983 137.17622233 -251.27204346 135.79152133 -257.09301758 132.3034668 C-261.78465114 128.32577747 -265.78389863 123.43378531 -266.40161133 117.1784668 C-266.68857567 108.55214478 -266.17862439 101.95279297 -260.09301758 95.3034668 C-253.88371951 90.26352806 -248.22716539 88.87167541 -240.30004883 88.9675293 C-233.49223494 89.68064987 -228.05899454 92.69880988 -223.59301758 97.8659668 C-219.9148391 103.39368388 -218.62203293 110.09923616 -219.35864258 116.67456055 C-220.03093509 119.54264715 -220.9845404 122.09899378 -222.36401367 124.69921875 C-223.4038723 127.34218558 -223.4038723 127.34218558 -221.94311523 129.85888672 C-221.30422363 130.74165283 -220.66533203 131.62441895 -220.00708008 132.53393555 C-218.98227539 133.98509766 -218.98227539 133.98509766 -217.93676758 135.46557617 C-217.20458008 136.46395508 -216.47239258 137.46233398 -215.71801758 138.4909668 C-214.28994461 140.48188347 -212.8652774 142.475249 -211.44458008 144.47143555 C-210.80343262 145.35081787 -210.16228516 146.2302002 -209.50170898 147.13623047 C-208.09301758 149.3034668 -208.09301758 149.3034668 -208.09301758 151.3034668 C-196.54301758 151.3034668 -184.99301758 151.3034668 -173.09301758 151.3034668 C-173.10872803 148.38599609 -173.12443848 145.46852539 -173.140625 142.46264648 C-173.19029808 132.83147321 -173.22345747 123.20029432 -173.24845409 113.56902695 C-173.26412084 107.7286477 -173.28537772 101.88839951 -173.31933594 96.0480957 C-173.35189311 90.41359414 -173.36986299 84.77921878 -173.37764931 79.14463043 C-173.38319934 76.99319725 -173.39403699 74.84177111 -173.41020775 72.69039154 C-173.43193337 69.68073003 -173.43498651 66.67159234 -173.43359375 63.66186523 C-173.44437958 62.7692247 -173.45516541 61.87658417 -173.46627808 60.95689392 C-173.46215408 60.13522232 -173.45803009 59.31355072 -173.45378113 58.46697998 C-173.45654651 57.7553558 -173.45931189 57.04373161 -173.46216106 56.31054306 C-172.95349223 53.54485115 -172.07045701 52.30891719 -170.09301758 50.3034668 C-167.30991077 48.99917221 -167.30991077 48.99917221 -163.86372375 47.84832764 C-163.22977084 47.63256521 -162.59581792 47.41680279 -161.94265431 47.19450212 C-159.81890215 46.47540631 -157.68924882 45.77577124 -155.55908203 45.07592773 C-154.0343158 44.56415261 -152.50993598 44.05122498 -150.98591614 43.53723145 C-146.84519679 42.14473043 -142.69897707 40.76934601 -138.55134988 39.39757824 C-134.20947087 37.95912037 -129.87207561 36.50725648 -125.53398132 35.05743408 C-118.24441408 32.62364385 -110.95119268 30.20106393 -103.65576172 27.78491211 C-95.22953039 24.99408683 -86.80952408 22.18509621 -78.39259559 19.36634994 C-70.29059016 16.65359697 -62.18411856 13.95443255 -54.07561302 11.26117706 C-50.62811928 10.11578216 -47.18229025 8.96556822 -43.73772621 7.81139374 C-39.67593032 6.45103793 -35.61035874 5.10262224 -31.54162407 3.76316833 C-30.05198145 3.27066651 -28.56366972 2.77411725 -27.07685089 2.27315521 C-17.45691065 -0.96457645 -9.9697063 -3.32211507 0 0 Z M-248.46801758 106.8659668 C-250.73215653 110.26217523 -250.73571513 112.30445982 -250.09301758 116.3034668 C-248.1028164 118.9623128 -248.1028164 118.9623128 -245.09301758 120.3034668 C-241.8363399 120.23833324 -239.9269162 119.90732442 -237.28051758 117.9909668 C-235.86914542 115.98533268 -235.30947236 114.75662097 -235.09301758 112.3034668 C-236.17331195 108.5224365 -236.73608021 107.54142504 -240.09301758 105.3034668 C-243.67027088 104.84679616 -245.42760063 104.86569249 -248.46801758 106.8659668 Z M215.90698242 109.3034668 C214.83055533 111.19197035 214.83055533 111.19197035 214.90698242 113.3034668 C216.54774735 116.74907314 217.69210685 118.16021641 220.90698242 120.3034668 C223.95217607 120.11314219 226.15316737 119.75575583 228.78198242 118.1784668 C230.60797927 115.13513872 230.33158823 112.76097124 229.90698242 109.3034668 C228.42705086 106.74007991 228.42705086 106.74007991 225.90698242 105.3034668 C221.02492497 104.48979056 218.86559368 105.35865179 215.90698242 109.3034668 Z M-247.84301758 214.8659668 C-250.40603002 217.19173818 -250.40603002 217.19173818 -250.65551758 220.8034668 C-250.34327002 224.29394162 -250.34327002 224.29394162 -248.46801758 226.7409668 C-245.37616527 228.77508016 -243.72934333 228.90952109 -240.09301758 228.3034668 C-237.7198946 226.50758995 -236.44690614 225.03483649 -235.15551758 222.3659668 C-235.06267228 219.30207194 -236.30575841 217.72903281 -238.09301758 215.3034668 C-241.92936389 212.74590259 -243.81364107 212.57654833 -247.84301758 214.8659668 Z M215.90698242 217.3034668 C214.74932392 219.18303924 214.74932392 219.18303924 214.90698242 221.3034668 C216.30620433 224.10191061 217.69489625 226.09138062 219.90698242 228.3034668 C223.46299133 228.76729405 225.2568833 228.73116359 228.28198242 226.7409668 C230.54612137 223.34475837 230.54967997 221.30247378 229.90698242 217.3034668 C227.78012313 214.7517382 227.78012313 214.7517382 224.90698242 213.3034668 C220.19917104 213.3034668 219.19763406 214.10175169 215.90698242 217.3034668 Z M-246.90551758 323.6159668 C-248.9540487 325.12184081 -248.9540487 325.12184081 -250.09301758 326.3034668 C-250.45697735 330.16144035 -250.65309292 332.46335378 -248.46801758 335.7409668 C-245.37616527 337.77508016 -243.72934333 337.90952109 -240.09301758 337.3034668 C-237.7198946 335.50758995 -236.44690614 334.03483649 -235.15551758 331.3659668 C-235.0592313 328.18851948 -236.10549265 326.73978768 -238.09301758 324.3034668 C-241.725004 322.40851736 -243.13813435 321.85785462 -246.90551758 323.6159668 Z M216.90698242 325.3034668 C215.24307493 327.54655236 215.24307493 327.54655236 214.90698242 330.3034668 C216.45214891 334.6167181 216.45214891 334.6167181 219.90698242 337.3034668 C223.44929303 337.68850056 225.26955584 337.72282639 228.28198242 335.7409668 C230.50659662 332.40404549 230.40728478 330.23441386 229.90698242 326.3034668 C228.37308121 323.88151752 227.21289868 323.41617279 224.53198242 322.4284668 C221.03212331 322.26180684 219.60974806 323.1120352 216.90698242 325.3034668 Z " fill="#000000" transform="translate(266.093017578125,34.696533203125)"/>
<path d="M0 0 C1.19443222 0.39507751 2.38886444 0.79015503 3.61949158 1.19720459 C6.87706008 2.27521516 10.12945423 3.36809732 13.38096142 4.46423364 C16.79177533 5.61168772 20.20674796 6.74663884 23.62115479 7.88334656 C29.3500069 9.79268805 35.07562576 11.71147544 40.79931641 13.63623047 C47.41202147 15.85984142 54.02921438 18.06964262 60.64907146 20.27186233 C67.02772366 22.39407789 73.40349819 24.52480681 79.77787018 26.65984154 C82.48665018 27.56703554 85.19632995 28.47146436 87.90676117 29.37371254 C91.68952521 30.63354081 95.46799948 31.90591948 99.24609375 33.1796875 C100.36928513 33.55228195 101.4924765 33.9248764 102.64970398 34.3087616 C103.67858231 34.65786591 104.70746063 35.00697021 105.76751709 35.36665344 C107.10696695 35.81602752 107.10696695 35.81602752 108.47347641 36.27447987 C110.99054889 37.33725922 112.83339339 38.45835672 114.86425781 40.28393555 C115.9125636 43.4288529 115.99257035 45.63090981 115.99797058 48.93222046 C116.00223557 50.10922012 116.00650055 51.28621979 116.01089478 52.49888611 C116.01044159 53.79226395 116.0099884 55.08564178 116.00952148 56.41821289 C116.01251383 57.79343253 116.01591653 59.16865133 116.0196991 60.54386902 C116.02854909 64.28672204 116.03087801 68.02955221 116.03151488 71.77241468 C116.03222637 74.11924062 116.03436287 76.46606078 116.0370121 78.81288528 C116.04627828 87.02622087 116.05034658 95.23954022 116.04956055 103.45288086 C116.04896375 111.0614143 116.05943339 118.66987592 116.07530421 126.27839124 C116.08849084 132.83838934 116.09373963 139.39836436 116.09310514 145.95837557 C116.0928528 149.86303705 116.09555298 153.7676351 116.10628319 157.67228317 C116.15938708 178.44696163 116.12604738 199.15788542 111.55175781 219.53393555 C111.22365112 221.03766724 111.22365112 221.03766724 110.88891602 222.57177734 C102.10263153 261.95411593 83.03484202 298.28123562 54.86425781 327.28393555 C53.95885254 328.2280127 53.95885254 328.2280127 53.03515625 329.19116211 C44.50847653 338.05771945 35.94216401 346.2028168 25.86425781 353.28393555 C25.00912598 353.88963379 25.00912598 353.88963379 24.13671875 354.50756836 C14.15743016 361.53084168 3.73198239 367.73638267 -7.13574219 373.28393555 C-8.55693359 374.02836914 -8.55693359 374.02836914 -10.00683594 374.7878418 C-15.21107861 376.96695819 -18.50409243 376.14938942 -23.69824219 374.09643555 C-26.22071601 372.87217301 -28.67774502 371.62427092 -31.13574219 370.28393555 C-31.81620605 369.91510254 -32.49666992 369.54626953 -33.19775391 369.16625977 C-48.42215943 360.78845686 -62.13669456 350.78001826 -75.13574219 339.28393555 C-75.67005859 338.8127832 -76.204375 338.34163086 -76.75488281 337.85620117 C-82.97243625 332.34535876 -88.88730604 326.74438169 -94.13574219 320.28393555 C-94.77697021 319.51122314 -94.77697021 319.51122314 -95.43115234 318.72290039 C-129.02851252 278.21278387 -147.9900053 229.17181364 -148.37402344 176.3503418 C-148.38209518 175.26937729 -148.39016693 174.18841278 -148.39848328 173.07469177 C-148.41219365 170.81348212 -148.4229729 168.55225291 -148.4309082 166.29101562 C-148.44252757 163.98203452 -148.46313225 161.67308226 -148.49243164 159.36425781 C-148.53493846 156.00526944 -148.55124153 152.64706499 -148.56152344 149.2878418 C-148.57903152 148.25760391 -148.59653961 147.22736603 -148.61457825 146.16590881 C-148.59290839 139.04085111 -148.59290839 139.04085111 -146.23413086 135.13549805 C-143.97050837 133.13813761 -143.10914996 132.62270912 -140.13574219 132.72143555 C-139.47574219 132.72014648 -138.81574219 132.71885742 -138.13574219 132.7175293 C-135.02591578 133.59824185 -134.0566593 134.63622478 -132.13574219 137.28393555 C-131.52205692 140.82996413 -131.57879997 144.35274959 -131.59667969 147.9440918 C-131.58488678 149.00317245 -131.57309387 150.06225311 -131.5609436 151.15342712 C-131.52563943 154.55124359 -131.5165264 157.94845089 -131.51074219 161.34643555 C-131.41701996 180.32380784 -131.18399347 199.06917942 -126.94824219 217.65893555 C-126.73176025 218.61751465 -126.51527832 219.57609375 -126.29223633 220.5637207 C-118.27847286 254.78465658 -101.98914151 286.23948865 -78.15527344 312.0769043 C-76.39669311 313.99875707 -74.72754444 315.96041044 -73.07324219 317.97143555 C-69.76440504 321.83472649 -66.04895754 325.0454125 -62.13574219 328.28393555 C-61.63461914 328.70803711 -61.13349609 329.13213867 -60.6171875 329.5690918 C-53.19075604 335.83855421 -45.54025758 341.52331373 -37.32324219 346.72143555 C-36.55971436 347.20507568 -35.79618652 347.68871582 -35.00952148 348.18701172 C-32.73952126 349.59357628 -30.44994341 350.95139966 -28.13574219 352.28393555 C-27.28189941 352.77651855 -26.42805664 353.26910156 -25.54833984 353.77661133 C-20.51893081 356.52859719 -20.51893081 356.52859719 -14.93652344 357.3034668 C-11.58996071 356.08526196 -8.44420541 354.67458017 -5.32324219 352.97143555 C-4.68016113 352.62314697 -4.03708008 352.2748584 -3.37451172 351.91601562 C21.08109979 338.28940296 43.80445443 318.18661167 59.86425781 295.28393555 C60.25597168 294.74188477 60.64768555 294.19983398 61.05126953 293.64135742 C86.8475383 257.86445112 99.10844188 215.344957 98.9777832 171.50732422 C98.97800224 169.54400902 98.97800224 169.54400902 98.97822571 167.54103088 C98.97850937 163.99644501 98.97268313 160.45189386 98.96565175 156.90731597 C98.9593457 153.18644757 98.95880873 149.46557812 98.95762634 145.7447052 C98.95453421 138.71860266 98.94634974 131.69251591 98.93627685 124.66642028 C98.92504948 116.65901822 98.91958867 108.65161535 98.91458142 100.64420736 C98.90416506 84.19077421 98.88660717 67.73735691 98.86425781 51.28393555 C84.20290789 46.24077384 69.53001568 41.23240719 54.84292889 36.26474476 C48.02298111 33.95711826 41.20717975 31.63844483 34.40014648 29.29296875 C28.4639864 27.24759861 22.52099065 25.2237442 16.56898814 23.22492236 C13.42027267 22.16669254 10.27714838 21.09523077 7.13962364 20.00419044 C3.62789639 18.78505601 0.10532913 17.60437277 -3.42211914 16.43164062 C-4.96177338 15.88246979 -4.96177338 15.88246979 -6.53253174 15.32220459 C-14.03018468 12.8935086 -18.8247474 13.5921044 -26.13574219 16.28393555 C-27.90424531 16.85075111 -29.67392696 17.41390226 -31.44474792 17.97343445 C-33.30524728 18.59170347 -35.16468555 19.21317231 -37.02319336 19.83740234 C-38.04892456 20.17921539 -39.07465576 20.52102844 -40.13146973 20.87319946 C-43.48150763 21.9903388 -46.830113 23.11170687 -50.17871094 24.2331543 C-52.51702753 25.0138381 -54.85543327 25.79425493 -57.19392395 26.57441711 C-63.31852814 28.618485 -69.44192193 30.66615515 -75.56506348 32.71459961 C-81.82552068 34.80826471 -88.08712585 36.89849064 -94.34863281 38.98901367 C-106.61212301 43.08397202 -118.87437559 47.18262327 -131.13574219 51.28393555 C-131.14160843 52.02673767 -131.14747467 52.76953979 -131.15351868 53.53485107 C-131.21144797 60.53870622 -131.28352566 67.54223991 -131.3714571 74.54577255 C-131.41616472 78.14629626 -131.4554196 81.74670672 -131.48217773 85.34741211 C-131.5082074 88.82301196 -131.5486064 92.29817612 -131.59892845 95.77350616 C-131.62370717 97.74317077 -131.63364305 99.71300394 -131.64338684 101.68280029 C-131.663181 102.88374329 -131.68297516 104.08468628 -131.70336914 105.32202148 C-131.7144722 106.37903259 -131.72557526 107.4360437 -131.73701477 108.52508545 C-132.19188288 111.67238076 -132.9006275 113.04608664 -135.13574219 115.28393555 C-139.07730551 116.37881425 -141.22917898 116.67809346 -145.01074219 115.03393555 C-147.13574219 113.28393555 -147.13574219 113.28393555 -148.13574219 110.28393555 C-148.2503331 108.11820588 -148.30510303 105.94914925 -148.32861328 103.78051758 C-148.33679077 103.12486816 -148.34496826 102.46921875 -148.35339355 101.79370117 C-148.3781836 99.62639265 -148.39474542 97.45914926 -148.40917969 95.29174805 C-148.41450336 94.55052578 -148.41982704 93.80930351 -148.42531204 93.04561996 C-148.45201359 89.12360418 -148.47139953 85.20161992 -148.48583984 81.27954102 C-148.49918872 78.03576518 -148.52706152 74.792617 -148.56787109 71.54907227 C-148.61718573 67.62925139 -148.64195872 63.7100005 -148.64906693 59.78988266 C-148.65577816 58.29792938 -148.67099725 56.80598876 -148.69495773 55.3142128 C-148.72661691 53.22418269 -148.72664719 51.13634998 -148.71923828 49.04614258 C-148.72732513 47.85828156 -148.73541199 46.67042053 -148.7437439 45.44656372 C-147.90554129 41.08650497 -146.72632089 39.92126781 -143.13574219 37.28393555 C-139.31730186 35.55085025 -135.38759971 34.25275164 -131.40405273 32.95263672 C-129.62269928 32.35169693 -129.62269928 32.35169693 -127.80535889 31.73861694 C-124.5587495 30.64709294 -121.30824454 29.56917429 -118.05494666 28.49787307 C-114.64294748 27.3714962 -111.23602676 26.22994426 -107.82832336 25.09065247 C-102.10459982 23.17973372 -96.3769238 21.28106508 -90.64672852 19.38964844 C-84.03445589 17.20691176 -77.42880008 15.0050334 -70.82636994 12.79271907 C-64.46074699 10.66024457 -58.09066297 8.54141154 -51.71845436 6.42870522 C-49.01342729 5.53159537 -46.31003017 4.62980406 -43.60785484 3.72414207 C-39.82833935 2.45821713 -36.04239817 1.21228852 -32.25561523 -0.03173828 C-30.58533012 -0.59502586 -30.58533012 -0.59502586 -28.88130188 -1.16969299 C-17.66610659 -4.81649901 -11.1117183 -3.77335089 0 0 Z " fill="#000000" transform="translate(272.1357421875,69.716064453125)"/>
<path d="M0 0 C12.37666332 10.1671167 19.85170581 22.81558842 21.78857422 38.69134521 C22.16315768 42.78159328 22.12179891 46.86454406 22.09765625 50.96875 C22.09553383 52.35012146 22.09553383 52.35012146 22.09336853 53.75939941 C22.08781407 56.67296734 22.07527025 59.58645568 22.0625 62.5 C22.05747911 64.48697805 22.05291723 66.47395731 22.04882812 68.4609375 C22.0378596 73.30732188 22.02062683 78.15364749 22 83 C23.16917969 82.96519531 24.33835937 82.93039063 25.54296875 82.89453125 C27.09113141 82.86638284 28.63930968 82.83908381 30.1875 82.8125 C30.95642578 82.78736328 31.72535156 82.76222656 32.51757812 82.73632812 C37.15647198 82.67659988 40.27805342 82.89958236 44 86 C44.95337736 88.86013209 45.12972734 90.64888774 45.14044189 93.61703491 C45.14615204 94.56473251 45.15186218 95.51243011 45.15774536 96.48884583 C45.15942215 98.04583443 45.15942215 98.04583443 45.16113281 99.63427734 C45.16609772 100.72883743 45.17106262 101.82339752 45.17617798 102.9511261 C45.19080755 106.57940291 45.1976026 110.20763602 45.203125 113.8359375 C45.20887535 116.3531596 45.2146331 118.87038169 45.22039795 121.38760376 C45.22956583 125.99333448 45.23586553 130.59905262 45.2388947 135.20479143 C45.2433756 141.98021983 45.26092678 148.75544651 45.2898953 155.53081357 C45.31412734 161.40250378 45.32183951 167.27412673 45.32357025 173.14586258 C45.32660065 175.64255497 45.33464214 178.13924643 45.34775543 180.63590622 C45.36478142 184.12640484 45.36294395 187.61641047 45.35644531 191.10693359 C45.3656601 192.14087753 45.37487488 193.17482147 45.3843689 194.24009705 C45.33268612 203.0872445 45.33268612 203.0872445 42 207 C39.36112788 208.31943606 37.37556046 208.13434453 34.42041016 208.14526367 C33.25224762 208.15164352 32.08408508 208.15802338 30.88052368 208.16459656 C28.9790004 208.16626579 28.9790004 208.16626579 27.0390625 208.16796875 C25.74181244 208.17129715 24.44456238 208.17462555 23.10800171 208.17805481 C20.35910206 208.18404702 17.61023385 208.18589466 14.86132812 208.18530273 C11.34174724 208.1852012 7.82236848 208.19884407 4.30283546 208.21607494 C0.94407469 208.22988099 -2.41464871 208.22928409 -5.7734375 208.23046875 C-7.66888809 208.24124702 -7.66888809 208.24124702 -9.60263062 208.25224304 C-10.77709747 208.24916641 -11.95156433 208.24608978 -13.16162109 208.24291992 C-14.1948349 208.24434494 -15.22804871 208.24576996 -16.29257202 208.24723816 C-19.05875069 207.99463498 -20.67304556 207.48278365 -23 206 C-24.88886253 203.48151662 -25.00715839 202.17180132 -24.875 199 C-23.79430543 195.29476146 -23.18508295 194.21647837 -20 192 C-16.29708093 191.43243144 -12.62881936 191.5356445 -8.890625 191.609375 C-7.45178955 191.61541748 -7.45178955 191.61541748 -5.98388672 191.62158203 C-2.40572949 191.6424871 1.17215475 191.69833271 4.75 191.75 C12.7525 191.8325 20.755 191.915 29 192 C29 161.31 29 130.62 29 99 C-11.92 99 -52.84 99 -95 99 C-95 129.69 -95 160.38 -95 192 C-79.0539275 191.84178117 -79.0539275 191.84178117 -63.10839844 191.63964844 C-61.10873262 191.62796556 -59.10905731 191.61777279 -57.109375 191.609375 C-56.07184082 191.58891113 -55.03430664 191.56844727 -53.96533203 191.54736328 C-46.65554624 191.54380967 -46.65554624 191.54380967 -43.36035156 193.83691406 C-41.60410792 196.62950535 -41.13713658 198.70872219 -41 202 C-41.79501109 204.60185447 -42.42349472 205.634604 -44.72010803 207.09022522 C-47.5305757 208.21172248 -49.76493279 208.27496179 -52.79077148 208.30639648 C-54.53794716 208.33037758 -54.53794716 208.33037758 -56.32041931 208.35484314 C-57.57464188 208.36020584 -58.82886444 208.36556854 -60.12109375 208.37109375 C-61.41314224 208.38012222 -62.70519073 208.3891507 -64.03639221 208.39845276 C-66.7691599 208.41492045 -69.50180539 208.42263899 -72.23461914 208.42553711 C-75.7297919 208.43092431 -79.22381073 208.46862468 -82.71865749 208.51428127 C-86.0611311 208.55123969 -89.40342274 208.55256665 -92.74609375 208.55859375 C-93.99829208 208.57812607 -95.25049042 208.59765839 -96.54063416 208.61778259 C-97.7085701 208.61170486 -98.87650604 208.60562714 -100.07983398 208.59936523 C-101.10479477 208.60443588 -102.12975555 208.60950653 -103.18577576 208.61473083 C-107.294055 207.71733045 -108.61302047 206.47168621 -111 203 C-111.72119595 199.31095253 -111.66253973 195.68802342 -111.61523438 191.93920898 C-111.62078339 190.82324341 -111.6263324 189.70727783 -111.63204956 188.55749512 C-111.64385728 184.86992416 -111.61955868 181.18357871 -111.59375 177.49609375 C-111.59203928 174.93449459 -111.59210418 172.37289368 -111.59387207 169.81129456 C-111.59221821 164.44375521 -111.57408815 159.07664365 -111.54199219 153.70922852 C-111.50508228 147.50668328 -111.49631959 141.30459942 -111.5032897 135.10195869 C-111.50959752 129.12983498 -111.49862309 123.15784815 -111.47932434 117.18574715 C-111.47228514 114.64638097 -111.46917092 112.10700083 -111.47001648 109.56762505 C-111.46822236 106.02195779 -111.44687293 102.47694999 -111.41992188 98.93139648 C-111.42285248 97.87829788 -111.42578308 96.82519928 -111.42880249 95.7401886 C-111.4174527 94.77428802 -111.40610291 93.80838745 -111.39440918 92.81321716 C-111.39068047 91.97534888 -111.38695175 91.1374806 -111.38311005 90.27422237 C-110.9061162 87.44268588 -109.95962191 86.07608384 -108 84 C-105.29283758 83.09761253 -103.76223232 82.88148698 -100.98828125 82.90234375 C-99.85229492 82.90717773 -99.85229492 82.90717773 -98.69335938 82.91210938 C-97.51483398 82.92467773 -97.51483398 82.92467773 -96.3125 82.9375 C-95.51521484 82.94201172 -94.71792969 82.94652344 -93.89648438 82.95117188 C-91.93095743 82.9629415 -89.96546915 82.98087652 -88 83 C-88.02094727 81.75089844 -88.04189453 80.50179687 -88.06347656 79.21484375 C-88.13682862 74.50337559 -88.18213979 69.7919559 -88.21972656 65.08007812 C-88.23962815 63.05525172 -88.26675946 61.03048111 -88.30175781 59.00585938 C-88.62013335 40.09060661 -87.34739827 21.38164734 -73.8125 6.68359375 C-52.92437071 -12.71895738 -23.95918586 -16.12014104 0 0 Z M-65.23828125 22.5625 C-71.27253026 30.91143877 -72.15388707 39.92839949 -72.09765625 49.89453125 C-72.0962413 50.84188644 -72.09482635 51.78924164 -72.09336853 52.76530457 C-72.08778611 55.78106895 -72.07523682 58.79675818 -72.0625 61.8125 C-72.05748273 63.86132705 -72.05292022 65.91015527 -72.04882812 67.95898438 C-72.03782243 72.97268506 -72.02056988 77.9863298 -72 83 C-66.72 83 -61.44 83 -56 83 C-55.9906543 81.67871094 -55.98130859 80.35742188 -55.97167969 78.99609375 C-55.93164214 74.06818612 -55.86584485 69.14089375 -55.79248047 64.21337891 C-55.76435057 62.08552995 -55.74309654 59.95757806 -55.72900391 57.82958984 C-55.70746392 54.7608602 -55.66075629 51.69335789 -55.609375 48.625 C-55.60814636 47.68197021 -55.60691772 46.73894043 -55.60565186 45.76733398 C-55.45155546 38.73147183 -53.84935672 33.44048201 -49.32421875 27.9765625 C-43.82434985 23.43490465 -38.45891312 21.45099219 -31.17578125 21.69140625 C-24.05258904 22.70169743 -18.63297642 25.51217198 -14.15625 31.12109375 C-10.68940608 36.75471512 -10.66371364 41.8782055 -10.5859375 48.33203125 C-10.56657135 49.32377853 -10.5472052 50.31552582 -10.5272522 51.33732605 C-10.46761547 54.4956307 -10.42113445 57.6539721 -10.375 60.8125 C-10.3368056 62.95769792 -10.29775302 65.10288075 -10.2578125 67.24804688 C-10.16192687 72.49857488 -10.07783688 77.74917467 -10 83 C-4.72 83 0.56 83 6 83 C6.07486735 77.38072532 6.12893696 71.7617491 6.16479492 66.14208984 C6.17976338 64.23546279 6.20014546 62.32886945 6.22631836 60.42236328 C6.4434925 44.18114404 5.93276639 29.42867411 -5.5625 16.8125 C-14.40488064 8.39118511 -24.47894094 5.61195272 -36.32421875 5.72265625 C-48.6063544 6.64936362 -57.44825799 13.50219789 -65.23828125 22.5625 Z M-37.71948242 38.40136719 C-41.11076014 42.26570292 -40.63130868 45.60082625 -40.48828125 50.578125 C-40.48120651 51.5046991 -40.47413177 52.43127319 -40.46684265 53.38592529 C-40.43888371 56.34144285 -40.37614272 59.29505644 -40.3125 62.25 C-40.28741906 64.25518095 -40.26460553 66.26039163 -40.24414062 68.265625 C-40.18905204 73.17781543 -40.10276911 78.08858507 -40 83 C-35.38 83 -30.76 83 -26 83 C-25.87637518 77.09187458 -25.7856487 71.18450226 -25.7253418 65.27539062 C-25.70020184 63.2654916 -25.66608471 61.25568395 -25.62280273 59.24609375 C-25.56212785 56.35654156 -25.53378553 53.46819808 -25.51171875 50.578125 C-25.48591232 49.68007141 -25.4601059 48.78201782 -25.43351746 47.85675049 C-25.40556421 42.64289314 -25.40556421 42.64289314 -28.28051758 38.40136719 C-31.95261382 36.50911183 -34.04738618 36.50911183 -37.71948242 38.40136719 Z " fill="#000000" transform="translate(289,134)"/>
<path d="M0 0 C5.02557011 4.59398489 8.57415064 9.13269363 9.3359375 16.05078125 C9.41776594 22.8834564 9.36083708 28.49474435 5 34 C1.97338604 37.06848412 -1.12164774 40.06082387 -5 42 C-5.39354302 44.45291361 -5.39354302 44.45291361 -5.5 47.3125 C-5.69799588 51.0199729 -5.8890955 53.87586135 -8 57 C-12.13890213 58.83066825 -14.08385195 59.33931409 -18.375 57.75 C-21 56 -21 56 -22 54 C-22.02575623 52.06255919 -22.04577647 50.12503983 -22.0625 48.1875 C-22.24344644 43.82971044 -22.24344644 43.82971044 -24.6328125 40.44921875 C-26.0312879 39.71807667 -27.44083565 39.00781662 -28.859375 38.31640625 C-33.71475442 35.33052511 -36.23688966 29.80378742 -37.6953125 24.4453125 C-38.7874439 16.98628739 -36.71416941 11.30136331 -33.3125 4.75 C-24.9073015 -5.24537119 -10.92937873 -7.2660129 0 0 Z M-21 16 C-22.1576585 17.87957244 -22.1576585 17.87957244 -22 20 C-20.6007781 22.79844381 -19.21208617 24.78791383 -17 27 C-13.6545418 26.81752046 -10.98934766 26.57445993 -8.0625 24.875 C-6.30702697 21.77710642 -6.51276426 19.47155466 -7 16 C-9.12685929 13.4482714 -9.12685929 13.4482714 -12 12 C-16.70781138 12 -17.70934836 12.79828489 -21 16 Z " fill="#000000" transform="translate(270,250)"/>
</svg>
